/* XPM */
static char *_0306a2317dc40cdc8588666c525cd77796e2bqgSAbelUXI[] = {
/* columns rows colors chars-per-pixel */
"64 64 208 2 ",
"   c #000001",
".  c #090504",
"X  c #03060A",
"o  c #06080D",
"O  c #090A0F",
"+  c #020517",
"@  c #060B12",
"#  c #090C13",
"$  c #0B0E19",
"%  c #0C121C",
"&  c #10151D",
"*  c #0F1722",
"=  c #0F1927",
"-  c #07192B",
";  c #111723",
":  c #131C2A",
">  c #0D1E35",
",  c #131D32",
"<  c #0C253C",
"1  c #152334",
"2  c #1A2434",
"3  c #14253C",
"4  c #192539",
"5  c #162839",
"6  c #1C2B3C",
"7  c #223639",
"8  c #2F4238",
"9  c #35463D",
"0  c #0F2845",
"q  c #142C43",
"w  c #1A2B44",
"e  c #172F49",
"r  c #1D2F4B",
"t  c #0E3344",
"y  c #1B3246",
"u  c #163448",
"i  c #1C344B",
"p  c #1D3A4D",
"a  c #1F3855",
"s  c #202D46",
"d  c #212F4A",
"f  c #223345",
"g  c #263C42",
"h  c #23344D",
"j  c #233B4D",
"k  c #223653",
"l  c #263755",
"z  c #233B53",
"x  c #2A3B53",
"c  c #233D5A",
"v  c #2A3E5A",
"b  c #2E4645",
"n  c #354846",
"m  c #354D4C",
"M  c #3E544A",
"N  c #2B4355",
"B  c #284755",
"V  c #26415C",
"C  c #2A445B",
"Z  c #2C4B5C",
"A  c #32435E",
"S  c #344C5E",
"D  c #2E4363",
"F  c #2A4967",
"G  c #2B4D64",
"H  c #334461",
"J  c #354A65",
"K  c #354768",
"L  c #334C6B",
"P  c #3B4B69",
"I  c #2F5366",
"U  c #345363",
"Y  c #3B5966",
"T  c #34536D",
"R  c #3A516D",
"E  c #2D4E70",
"W  c #3B4D72",
"Q  c #355371",
"!  c #3B5372",
"~  c #395B75",
"^  c #3C557A",
"/  c #3C6274",
"(  c #3A6079",
")  c #455749",
"_  c #445959",
"`  c #4C604E",
"'  c #566749",
"]  c #466759",
"[  c #5C735A",
"{  c #5A795E",
"}  c #647B5A",
"|  c #435C68",
" . c #435A77",
".. c #43557B",
"X. c #425A79",
"o. c #486667",
"O. c #4C666C",
"+. c #546C61",
"@. c #567268",
"#. c #4C6C77",
"$. c #44647D",
"%. c #466A7A",
"&. c #566F76",
"*. c #4D787E",
"=. c #587773",
"-. c #718959",
";. c #5E807A",
":. c #65836A",
">. c #788B60",
",. c #7A9268",
"<. c #718F7C",
"1. c #74927B",
"2. c #A0AD3F",
"3. c #A7B53D",
"4. c #97A64C",
"5. c #9BAC4B",
"6. c #95A450",
"7. c #9EA953",
"8. c #AFBC54",
"9. c #859C69",
"0. c #819D79",
"q. c #8DA86E",
"w. c #93A562",
"e. c #99AC63",
"r. c #93A968",
"t. c #94A86A",
"y. c #8EA57B",
"u. c #92AB78",
"i. c #9EB176",
"p. c #A1AE69",
"a. c #A9BA6E",
"s. c #AFBD78",
"d. c #B1BF71",
"f. c #B7C053",
"g. c #CBD65F",
"h. c #D1DB5F",
"j. c #D3DC68",
"k. c #C7CF73",
"l. c #D5DE7B",
"z. c #435E81",
"x. c #485886",
"c. c #416383",
"v. c #496584",
"b. c #4C648C",
"n. c #476C89",
"m. c #4B6C8C",
"M. c #55688C",
"N. c #4D7783",
"B. c #4B718D",
"V. c #537B83",
"C. c #5A7D84",
"Z. c #56748D",
"A. c #4D6790",
"S. c #4D6C96",
"D. c #546490",
"F. c #506D92",
"G. c #596992",
"H. c #556E9B",
"J. c #596B9C",
"K. c #4F7492",
"L. c #4D759B",
"P. c #517194",
"I. c #537B95",
"U. c #5B759A",
"Y. c #597A98",
"T. c #5B7B9B",
"R. c #627B86",
"E. c #617A9A",
"W. c #597AA4",
"Q. c #5E7DA9",
"!. c #637CA2",
"~. c #607DAE",
"^. c #5D8583",
"/. c #5B869F",
"(. c #688A87",
"). c #62858C",
"_. c #748F87",
"`. c #769586",
"'. c #638795",
"]. c #678E94",
"[. c #6A8D92",
"{. c #669794",
"}. c #6C9292",
"|. c #709A97",
" X c #5882A2",
".X c #5B82AC",
"XX c #5D82B0",
"oX c #6486AB",
"OX c #6886B2",
"+X c #638AB4",
"@X c #78A7A5",
"#X c #97AC82",
"$X c #94B395",
"%X c #A3BB87",
"&X c #A3BA92",
"*X c #87A6A5",
"=X c #A1C19E",
"-X c #B1CCAD",
";X c #D4DC87",
":X c #C9D6A3",
">X c #D2DCA1",
",X c #DCE3A3",
"<X c #E4E9AF",
"1X c #E5E9B2",
"2X c #F3F5BA",
"3X c #F5F7C8",
"4X c #F7F9D1",
"5X c #FBFBE6",
/* pixels */
"                                                X X X X X X X X X X X X @ @ @ @                                                 ",
"                                                X X X X X X X X X X X X @ @ @ @                                                 ",
"                                                                                    @ @ X X                                     ",
"                                                                                    @ @ X X                                     ",
"                                            1 1 x x J J  . .b.b.K.K.m.m.v.v.R R 6 6         @ @                                 ",
"                                            1 1 x x J J  . .b.b.P.P.m.m.v.v.R R 6 6         @ @                                 ",
"                                @ @ 6 6 N N L L ! ! R R Q Q T T T T R R z.z.T.T.W.W.P.P.N x     O O                             ",
"                                @ @ 6 6 N N L L ! ! R R Q Q T T T T R Q z.z.T.T.W.W.P.P.N x     @ @                             ",
"                        o o : : f f C C C C h h q q 0 0 i i z z z z i i y y e e C C n.n.OXOXM.M.    . .                         ",
"                        o o : : f f C C C C h h q q 0 0 i i z z z z i i y y e e C C n.n.OXOXM.M.    . .                         ",
"                    X X 1 1 f f h h 3 3 e e G G ( ( / $.U U B B z z j j C V V C c c 3 3 J J !.!.M.M.- - X X                     ",
"                    X X 1 1 f f h h 3 3 e e G G ( ( / $.U U B B z z j j C V V C c c 3 3 J J !.!.M.M.- - X X                     ",
"                X X : : 6 6 5 5 i i n.n. X X/./.I.I.V.V.N.N.%.%.Y Y p p w w j j Z Z T T p p < < E.E.T.T.    # #                 ",
"                X X : : 6 6 5 5 i i n.n. X X/./.I.I.V.V.N.N.%.%.Y Y p p y w j j Z Z T T p p < < T.T.T.T.    # #                 ",
"                % % 1 1 1 1 R R /./. X X$.$.I I U U V.V.).).].}.}.}.[.[.#.#.Z Z i i Z Z ~ ~ N N q q E.!.X.X.    @ @             ",
"                % % 1 1 1 1 R R T./. X X$.$.I I U U V.V.).).}.}.}.}.].[.#.#.Z Z i i Z Z ~ ~ N N q q E.E.X.X.    @ @             ",
"            o o : : y y m.m.oXoXn.n.a a u u *.*.{.{.{.{.;.;.=.=.=.=.<.<.}.}.|.|.o.o.u u U U ( ( i i ! ! OXOXq q                 ",
"            o o : : y y m.m.oXoXn.n.a a u u *.*.{.{.{.{.;.;.=.=.=.=.<.<.}.}.|.|.o.o.u u U U ( ( u i ! ! OXOXq q                 ",
"            % % 3 3 L.L.oXoXU U q q U U '.'.^.^.] ] ) ) } } -.-.-.-.} } ` ` ;.^.@X@X%.%.q q %.%.T T t t E.E.v.v.    o o         ",
"            % % 3 3 L.L.oXoXU U q q U U '.'.^.^.] ] ) ) } } -.-.-.-.} } ` ` ^.^.@X@X%.%.q q %.%.T T t t E.E.v.v.    o o         ",
"        # # + + z.z.+X+XR R i i Z Z ].].R.R.8 8 ' ' ,.,.q.q.r.r.r.r.u.u.y.y.' ' }.}.@X@Xt t U U B.B.q q $.$.T.T.+ + # #         ",
"        # # + + z.z.+X+XR R i i Z Z ].].R.R.8 8 ' ' ,.,.q.q.r.r.r.r.u.u.y.y.' ' }.}.@X@Xt t U U B.B.q q $.$.T.T.+ + # #         ",
"        # # 3 3 ~.~.F.F.i i u u V.V.C.C.7 7 { { %X%Xs.s.5.5.5.5.7.5.6.6.e.e.#X#X:.:.*X*XY Y z z B.B.C C K K .X.X5 5 # #         ",
"        # # 3 3 ~.~.F.F.i i u u V.V.C.C.7 7 { { %X%Xs.s.5.5.5.5.7.7.6.6.e.e.#X#X:.:.*X*XY Y z z B.B.C C K K .X.X5 5 @ @         ",
"    X X     ! ! ~.~.E E e e %.%.).).g g @.@.$X$X:X:X<X<X1X1Xl.l.j.j.f.f.4.4.i.i.0.0.*X*X&.&.i i I.I.Q Q V V +X+Xv v     X X     ",
"    X X     ! ! ~.~.E E e e %.%.).).g g @.@.$X$X:X:X<X<X1X1Xl.l.j.j.f.f.4.4.i.i.0.0.*X*X&.&.i i I.I.Q Q V V +X+Xv v     X X     ",
"        > > ~.~.S.S.i i V V '.'.O.O.7 7 `.`.&X&Xa.a.k.k.3X3X5X5X3X3Xj.j.3.3.7.e.$X$X*X*XO.O.q q B.B.~ ~ h h XXXXK K     @ @     ",
"        > > Q.Q.S.S.i i V V '.'.O.O.7 7 `.`.&X&Xa.a.k.k.3X3X5X5X3X3Xj.j.3.3.e.e.$X$X*X*XO.O.w w B.B.~ ~ h h XXXXK K     @ @     ",
"X X     x x OXOX^ ^ q q ! ! T.T.p p _ _ `.`.#X#Xp.p.2.2.h.h.2X2X5X5X4X4X;X;Xd.d.-X-X`.`.n n x x n.n.F F D D +X+Xv v $ $ @ @     ",
"X X     x x OXOX^ ^ q q ! ! T.T.p p _ _ `.`.#X#Xp.p.2.2.h.h.2X2X5X5X4X4X;X;Xd.d.-X-X`.`.n n x x n.n.F F D D +X+Xv v $ $ @ @     ",
"        J J Q.Q.F F i i v.v.T.T.t t _ _ <.<.1.1.i.i.6.6.8.8.g.g.j.j.,X,X<X<X>X>X=X=X] ] n n U U B.B.a a ~ ~ .X.Xr r = = o o     ",
"        J J Q.Q.F F i i v.v.T.T.t t _ _ <.<.1.1.i.i.6.6.8.8.g.g.j.j.,X,X<X<X>X>X=X=X] ] n n U U B.B.a a ~ ~ .X.Xr r = = o o     ",
"        ! ! H.H.V V a a K.K.T.T.< < | | _._.[ [ u.u.w.w.6.6.7.7.7.7.5.5.a.a.%X%X:.:.m m m m Z.Z.$.$.> > n.n.L.L., , : : X X     ",
"        ! ! H.H.V V a a K.K.T.T.< < | | _._.[ [ u.u.w.w.6.6.7.7.7.7.5.5.a.a.%X%X:.:.m m m m Z.Z.$.$.> > n.n.L.L., , : : X X     ",
"X X     ^ ^ A.A.l l k k B.B.I.I.6 6 B B `.`.+.+.} } u.u.t.t.w.w.w.w.r.r.9.9.} } M M b b | | Z.Z.c c h h .XXX^ ^ , , = = X X     ",
"X X     ^ ^ A.A.l l k k B.B.I.I.6 6 B B `.`.+.+.} } u.u.t.t.w.w.w.w.r.r.9.9.} } M M b b | | Z.Z.c c h h .XXX^ ^ , , = = X X     ",
"X X     ! ! b.b.l l k k c.c.I.I.j j i i =.=.<.<.9 9 [ [ ,.,.9.9.9.9.>.>.[ [ ) ) b b o.o.R.R.P P < < F.F.Q.Q.w w 4 4 % %         ",
"X X     ! ! b.b.x l k k c.c.I.I.j j i i =.=.<.<.9 9 [ [ ,.,.9.9.9.9.>.>.[ [ ) ) b b o.o.R.R.R R < < F.F.Q.Q.w w 4 4 % %         ",
"        H H b.b.x x k k Q Q I.I.C C y y B B |.|.(.(.m m n n ) ) ) ) n n b b b b O.O.[.[.$.$.3 3 L L +X+XQ Q w w 1 1 # #         ",
"        H H b.b.x x k k T Q I.I.C C y y B B |.|.(.(.m m n n ) ) ) ) n n b b b b O.O.[.[.$.$.3 3 L L +X+XQ Q w w 1 1 # #         ",
"        f f b.b.x x d d F F I.I.S S i i p p / / ].].(.(.@.@.o.o.o.o.o.o.&.&.C.C.).).| | h h A A W.W.c.c.w w h h : : o o         ",
"        f f b.b.x x d d F F I.I.S S i i p p / / ].].(.(.@.@.o.o.o.o.o.o.&.&.C.C.).).| | h h H H W.W.c.c.w w h h : : o o         ",
"        : : X.X.A A 6 6 h h S.S. . .f f z z i i G G N.N.).).}.}.}.}.[.[.).).#.#.S S h h ^ ^ S.S.^ ^ i i l l w s % %             ",
"        : : X.X.A A 6 6 k h S.S. . .f f z z i i G G N.N.).).}.}.}.}.[.[.).).#.#.S S h h ^ ^ S.S.^ ^ i i l l w w % %             ",
"            A A J J 1 1 s s L L H.H.P P i i z z j j p p G G I I I I Z Z j j h h R R z.z.z.z.H H r r h h x x 4 4 X X             ",
"            A A J J 1 1 s s L L H.H.P P i i z z j j p p G G I I I I Z Z p p h h R P z.z.z.z.H H r r h h x x 4 4 X X             ",
"            2 2 H H f f 4 4 x x m.m.!.!.C C a a z z z z z z z z h h N N S S R R R R H H h h l l v v H H d h @ @ X X             ",
"            2 2 H H f f 4 4 x x m.m.!.!.C C a a z z z z z z z z h h N N S S R R R R H H h h k k v x H H h h @ @ X X             ",
"        X X # # f f x x 2 2 6 6 c c P.K.U.U.P P k k k z l l l l x x v v v v c c r r i i K K ....W W l l * * X X                 ",
"        X X # # f f x x 2 2 6 6 c c P.P.U.U.P P k k k k l l l l x x v C v v c c r r i i K K ....W W l l * * X X                 ",
"            X X % % 6 6 f f 4 4 1 4 y y b.b.T.T.v.v.K K h h h h w w r r l l x x A A z.z.J.J.x.x.l l % % o o                     ",
"            X X % % 6 6 f f 4 4 1 1 y y b.b.T.T.v.v.K K h h h h w w r r l l x x A A z.z.J.J.x.x.l l % % o o                     ",
"                X X # # 6 6 6 6 : : , , 6 6 c.c.U.U.Q.Q.H.H.G.G.D.D.D.D.G.G.J.J.b.b.....K K w w o o X X                         ",
"                X X # # 6 6 6 6 : : , , 6 6 c.c.U.U.Q.Q.H.H.G.G.D.D.D.D.G.G.H.J.b.b.....K K w w o o X X                         ",
"                    o o % % : : : : : : : : s s D D ^ ^ H.H.J.J.J.J.J.J.b.b.! ! x x 1 1 $ $ # # X X                             ",
"                    o o % % : : : : : : : : s s D D ^ ^ H.H.J.J.J.J.J.J.b.b.! ! x x 1 1 $ $ # # X X                             ",
"                    X X X X O @ @ @ & & ; ; * * ; ; : : , , > > 3 3 w w , , . . O O @ @ @ @ X X                                 ",
"                    X X X X @ @ @ @ & & ; ; * * ; ; : : , , > > 3 3 w w , , . . O O @ @ @ @ X X                                 ",
"                                X X o o o o # # % % $ $ # # & & % % O O o o @ @ X X                                             ",
"                                X X o o o o # # % % $ $ # # & & % % O O o o @ @ X X                                             ",
"                                X X X X X X     X X X X o o X X     X X                                                         ",
"                                X X X X X X         X X o o X X     X X                                                         ",
"                                        X X X X   X                                                                             ",
"                                        X X X X X X                                                                             "
};
