/* XPM */
static char *_44715931f274bcfb789f407e7ac936bV58PuVd0lvjcWGdC[] = {
/* columns rows colors chars-per-pixel */
"64 64 37 1 ",
"  c black",
". c #000014",
"X c #00001A",
"o c #1A1824",
"O c #15122D",
"+ c #1F1C2A",
"@ c #1E1C2C",
"# c #232031",
"$ c #222034",
"% c #26243A",
"& c #2A2841",
"* c #2E2C47",
"= c #655D69",
"- c #756D79",
"; c #4A4A8A",
": c #4E4E91",
"> c #525299",
", c #56569F",
"< c #5656A1",
"1 c #5A5AA7",
"2 c #847E87",
"3 c #867D8A",
"4 c #948D97",
"5 c #958D99",
"6 c #A59DA8",
"7 c #B5ADB9",
"8 c #C0C0C0",
"9 c #C6C6C6",
"0 c #CDCDCD",
"q c #DADADA",
"w c #DCDCD9",
"e c gray88",
"r c #E6E6E6",
"t c #F7F8F3",
"y c gray98",
"u c white",
"x c #A98365",
/* pixels */
"xxxxxxxxxxxxxxxxxxxxxxxxxxxxxxxxxxxxxxxxxxxxxxxxxxxxxxxxxxxxxxxx",
"xxxxxxxxxxxxxxxxxxxxxxxxxxxxxxxxxxxxxxxxxxxxxxxxxxxxxxxxxxxxxxxx",
"xxxxxxxxxxxxxxxxxxx    xxxxxxxxxxxxxxxxxx    xxxxxxxxxxxxxxxxxxx",
"xxxxxxxxxxxxxxxxxx uuu   xxxxxxxxxxxxxx   uuu xxxxxxxxxxxxxxxxxx",
"xxxxxxxxxxxxxxxxx uuq uu xxxxxxxxxxxxxx uu quu xxxxxxxxxxxxxxxxx",
"xxxxxxxxxxxxxxxxx u80ry xxxxxxxxxxxxxxxx yr08u xxxxxxxxxxxxxxxxx",
"xxxxxxxxxxxxxxxx uu90u xxxxxxxxxxxxxxxxxx u09uu xxxxxxxxxxxxxxxx",
"xxxxxxxxxxxxxxxx u80r xxxxxxxxxxxxxxxxxxxx r08u xxxxxxxxxxxxxxxx",
"xxxxxxxxxxxxxxxx u90r xxxxxxxxxxxxxxxxxxxx r09u xxxxxxxxxxxxxxxx",
"xxxxxxxxxxxxxxxx u90r xxxxxxxxxxxxxxxxxxxx r09u xxxxxxxxxxxxxxxx",
"xxxxxxxxxxxxxxxx u80r xxxxxxxxxxxxxxxxxxxx r08u xxxxxxxxxxxxxxxx",
"xxxxxxxxxxxxxxxx uu90u xxxxxxx    xxxxxxx u09uu xxxxxxxxxxxxxxxx",
"xxxxxxxxxxxxxxxxx u800u xx    uuuu    xx u008u xxxxxxxxxxxxxxxxx",
"xxxxxxxxxxxxxxxxx uu900u  uuuu8998uuuu  u009uu xxxxxxxxxxxxxxxxx",
"xxxxxxxxxxxxxxxxxx u8009uu899900009998uu9008u xxxxxxxxxxxxxxxxxx",
"xxxxxxxxxxxxxxxxxxx u8009900000000000099008u xxxxxxxxxxxxxxxxxxx",
"xxxxxxxxxxxxxxxxxxxx u90000000000000000009u xxxxxxxxxxxxxxxxxxxx",
"xxxxxxxxxxxxxxxxxxxx u90000000000000000009u xxxxxxxxxxxxxxxxxxxx",
"xxxxxxxxxxxxxxxxxxxx u900ee0000000000ee009u xxxxxxxxxxxxxxxxxxxx",
"xxxxxxxxxxxxxxxxxxxx u90t..t00000000t..t09u xxxxxxxxxxxxxxxxxxxx",
"xxxxxxxxxxxxxxxxxxxx u9tX  Xt000000tX  Xt9u xxxxxxxxxxxxxxxxxxxx",
"xxxxxxxxxxxxxxxxxxxx uw.    .e0000e.    .wu xxxxxxxxxxxxxxxxxxxx",
"xxxxxxxxxxxxxxxxxxxx uwO    Oe0000eO    Owu xxxxxxxxxxxxxxxxxxxx",
"xxxxxxxxxxxxxxxxxxxx ue      r0000r      eu xxxxxxxxxxxxxxxxxxxx",
"xxxxxxxxx xxxxxx xxx ue      r0000r      eu xxx xxxxxx xxxxxxxxx",
"xxxxxxxxx xxxxxx xxx ue      r0000r      eu xxx xxxxxx xxxxxxxxx",
"xxxxxxxxx  xxxx  xxx ue      r0000r      eu xxx  xxxx  xxxxxxxxx",
"xxxxxxxxx  xxxx  xxx ue      r0000r      eu xxx  xxxx  xxxxxxxxx",
"xxxxxxxxx , xxx , xx ue      r0000r      eu xx , xxx , xxxxxxxxx",
"xxxxx xxx : xxx > xx u8u    u000000u    u8u xx > xxx : xxx xxxxx",
"xxxxx  xx : xx &o< xx u8u  u00000000u  u8u xx <o& xx : xx  xxxxx",
"xxxxx , x > xx %$o< x uu8ee0000000000ee8uu x <o$% xx > x 1 xxxxx",
"xxxxx ># &o> x %$$o<   uuuu8999999998uuuu   <o$$% x >o& <# xxxxx",
"xxxxxx :#$@: x %$$$o:;>    uuuuuuuuuu    >;:o$$$% x :@@>+ xxxxxx",
"xxxxxx ;@$%o< *$$$$$@@@* &&          && 1o@@$$$$$* <o$$@% xxxxxx",
"xxxxxx ;@% %o< &%$$$$%& &$$%%%%%%%%%%$$& &%$$$$%& <o$$$$% xxxxxx",
"xxxxxx >o% &$o<  &%%&  &$$$$$$$$$$$$$$$@<  &%%&  <o$$%$$& xxxxxx",
"xxxxxxx :@& %$o:>    &%$$$$$$$%$$$$$$$$$o:>    >:o$$% %% xxxxxxx",
"xxxxxxx >o$%$$$@o::#%$$$$$$$%& %$$$$$$$%%@o:;;:o@$$$& %& xxxxxxx",
"xxxxxxxx :@$$$$$$@@$$$$$$$$%  &$$$$%%%&  &%@@@@$$$$% &% xxxxxxxx",
"xxxxxxxx >o$$$$$$$$$$$$$$$$$%%$%%%&        &%$$$$$$$%$& xxxxxxxx",
"xxxxxxxxx <o@$$$$$$$$$$$$$$$$$&              &%$$$$$$& xxxxxxxxx",
"xxxxxxxxxx >:@$$$$$$$$$$$$$$$&                 &%$$%& xxxxxxxxxx",
"xxxxxxxxx *  %$$$$$$$$$$$$$%&           xx       &&   xxxxxxxxxx",
"xxxxxxxxx %%%$$$$%%%$$$$%%&             xxxxx        u xxxxxxxxx",
"xxxxxxxx <@$$$%%&   %$$%                xxxxxxxx   5uuu xxxxxxxx",
"xxxxxxxx #$%%&   &%%$%%&                xxxxxxx  762=uuu xxxxxxx",
"xxxxxxx 1#&   *%%$%%&                    xxxxxxxx  64-=uu xxxxxx",
"xxxxxxx    xxx &%&   xx                  xxxxxxxxxx  64=uu xxxxx",
"xxxxxxx xxxxxx    xxxxx                  xxxxxxxxxxxx  63=u xxxx",
"xxxxxxxxxxxxxx xxxxxxxx                  xxxxxxxxxxxxxx  6-u xxx",
"xxxxxxxxxxxxxxxxxxxxxx                    xxxxxxxxxxxxxxx  3u xx",
"xxxxxxxxxxxxxxxxxxxxxx                    xxxxxxxxxxxxxxxxx  u x",
"xxxxxxxxxxxxxxxxxxxxxx        xxxx        xxxxxxxxxxxxxxxxxxx  x",
"xxxxxxxxxxxxxxxxxxxxxx      xxxxxxxx      xxxxxxxxxxxxxxxxxxxxxx",
"xxxxxxxxxxxxxxxxxxxxx      xxxxxxxxxx      xxxxxxxxxxxxxxxxxxxxx",
"xxxxxxxxxxxxxxxxxxxxx     xxxxxxxxxxxx     xxxxxxxxxxxxxxxxxxxxx",
"xxxxxxxxxxxxxxxxxxxxx     xxxxxxxxxxxx     xxxxxxxxxxxxxxxxxxxxx",
"xxxxxxxxxxxxxxxxxxxxx    xxxxxxxxxxxxxx    xxxxxxxxxxxxxxxxxxxxx",
"xxxxxxxxxxxxxxxxxxxxx    xxxxxxxxxxxxxx    xxxxxxxxxxxxxxxxxxxxx",
"xxxxxxxxxxxxxxxxxxxxx   xxxxxxxxxxxxxxxx   xxxxxxxxxxxxxxxxxxxxx",
"xxxxxxxxxxxxxxxxxxxxx   xxxxxxxxxxxxxxxx   xxxxxxxxxxxxxxxxxxxxx",
"xxxxxxxxxxxxxxxxxxxxx  xxxxxxxxxxxxxxxxxx  xxxxxxxxxxxxxxxxxxxxx",
"xxxxxxxxxxxxxxxxxxxxxxxxxxxxxxxxxxxxxxxxxxxxxxxxxxxxxxxxxxxxxxxx"
};
