/* XPM */
static char * player_xpm[] = {
"64 64 2 1",
" 	c none".
".	c #FF0000",
"                                                                ",
"                                                                ",
"                                                                ",
"                                                                ",
"                                                                ",
"                             ....                               ",
"                             ....                               ",
"                             ....                               ",
"                             ....                               ",
"                             ....                               ",
"                             ....                               ",
"                             ....                               ",
"                             ....                               ",
"                             ....                               ",
"                             ....                               ",
"                             ....                               ",
"                             ....                               ",
"                             ....                               ",
"                             ....                               ",
"                             ....                               ",
"                             ....                               ",
"                             ....                               ",
"                             ....                               ",
"                             ....                               ",
"                             ....                               ",
"                             ....                               ",
"                             ....                               ",
"                             ....                               ",
"                             ....                               ",
"                     ....................                       ",
"                     ....................                       ",
"                     ....................                       ",
"                     ....................                       ",
"                     ....................                       ",
"                             ....                               ",
"                             ....                               ",
"                             ....                               ",
"                             ....                               ",
"                             ....                               ",
"                             ....                               ",
"                             ....                               ",
"                             ....                               ",
"                             ....                               ",
"                             ....                               ",
"                             ....                               ",
"                             ....                               ",
"                             ....                               ",
"                             ....                               ",
"                             ....                               ",
"                             ....                               ",
"                             ....                               ",
"                             ....                               ",
"                             ....                               ",
"                             ....                               ",
"                             ....                               ",
"                             ....                               ",
"                             ....                               ",
"                             ....                               ",
"                             ....                               ",
"                                                                ",
"                                                                ",
"                                                                ",
"                                                                ",
"                                                                "};