/* XPM */
static char *_44715931f274bcfb789f407e7ac936bV58PuVd0lvjcWGdC[] = {
/* columns rows colors chars-per-pixel */
"64 64 37 1 ",
"  c black",
". c #000014",
"X c #00001A",
"o c #1A1824",
"O c #15122D",
"+ c #1F1C2A",
"@ c #1E1C2C",
"# c #232031",
"$ c #222034",
"% c #26243A",
"& c #2A2841",
"* c #2E2C47",
"= c #655D69",
"- c #756D79",
"; c #4A4A8A",
": c #4E4E91",
"> c #525299",
", c #56569F",
"< c #5656A1",
"1 c #5A5AA7",
"2 c #847E87",
"3 c #867D8A",
"4 c #948D97",
"5 c #958D99",
"6 c #A59DA8",
"7 c #B5ADB9",
"8 c #C0C0C0",
"9 c #C6C6C6",
"0 c #CDCDCD",
"q c #DADADA",
"w c #DCDCD9",
"e c gray88",
"r c #E6E6E6",
"t c #F7F8F3",
"y c gray98",
"u c white",
"x c #A98365",
/* pixels */
"xxxxxxxxxxxxxxxxxxxxxxxxxxxxxxxxxxxxxxxxxxxxxxxxxxxxxxxxxxxxxxxx",
"xxxxxxxxxxxxxxxxxxxxxxxxxxxxxxxxxxxxxxxxxxxxxxxxxxxxxxxxxxxxxxxx",
"uuuuuuuuuuuuuuuuuuu    uuuuuuuuuuuuuuuuuu    uuuuuuuuuuuuuuuuuuu",
"uuuuuuuuuuuuuuuuuu uuu   uuuuuuuuuuuuuu   uuu uuuuuuuuuuuuuuuuuu",
"uuuuuuuuuuuuuuuuu uuq uu uuuuuuuuuuuuuu uu quu uuuuuuuuuuuuuuuuu",
"uuuuuuuuuuuuuuuuu u80ry uuuuuuuuuuuuuuuu yr08u uuuuuuuuuuuuuuuuu",
"uuuuuuuuuuuuuuuu uu90u uuuuuuuuuuuuuuuuuu u09uu uuuuuuuuuuuuuuuu",
"uuuuuuuuuuuuuuuu u80r uuuuuuuuuuuuuuuuuuuu r08u uuuuuuuuuuuuuuuu",
"uuuuuuuuuuuuuuuu u90r uuuuuuuuuuuuuuuuuuuu r09u uuuuuuuuuuuuuuuu",
"uuuuuuuuuuuuuuuu u90r uuuuuuuuuuuuuuuuuuuu r09u uuuuuuuuuuuuuuuu",
"uuuuuuuuuuuuuuuu u80r uuuuuuuuuuuuuuuuuuuu r08u uuuuuuuuuuuuuuuu",
"uuuuuuuuuuuuuuuu uu90u uuuuuuu    uuuuuuu u09uu uuuuuuuuuuuuuuuu",
"uuuuuuuuuuuuuuuuu u800u uu    uuuu    uu u008u uuuuuuuuuuuuuuuuu",
"uuuuuuuuuuuuuuuuu uu900u  uuuu8998uuuu  u009uu uuuuuuuuuuuuuuuuu",
"uuuuuuuuuuuuuuuuuu u8009uu899900009998uu9008u uuuuuuuuuuuuuuuuuu",
"uuuuuuuuuuuuuuuuuuu u8009900000000000099008u uuuuuuuuuuuuuuuuuuu",
"uuuuuuuuuuuuuuuuuuuu u90000000000000000009u uuuuuuuuuuuuuuuuuuuu",
"uuuuuuuuuuuuuuuuuuuu u90000000000000000009u uuuuuuuuuuuuuuuuuuuu",
"uuuuuuuuuuuuuuuuuuuu u900ee0000000000ee009u uuuuuuuuuuuuuuuuuuuu",
"uuuuuuuuuuuuuuuuuuuu u90t..t00000000t..t09u uuuuuuuuuuuuuuuuuuuu",
"uuuuuuuuuuuuuuuuuuuu u9tX  Xt000000tX  Xt9u uuuuuuuuuuuuuuuuuuuu",
"uuuuuuuuuuuuuuuuuuuu uw.    .e0000e.    .wu uuuuuuuuuuuuuuuuuuuu",
"uuuuuuuuuuuuuuuuuuuu uwO    Oe0000eO    Owu uuuuuuuuuuuuuuuuuuuu",
"uuuuuuuuuuuuuuuuuuuu ue      r0000r      eu uuuuuuuuuuuuuuuuuuuu",
"uuuuuuuuu uuuuuu uuu ue      r0000r      eu uuu uuuuuu uuuuuuuuu",
"uuuuuuuuu uuuuuu uuu ue      r0000r      eu uuu uuuuuu uuuuuuuuu",
"uuuuuuuuu  uuuu  uuu ue      r0000r      eu uuu  uuuu  uuuuuuuuu",
"uuuuuuuuu  uuuu  uuu ue      r0000r      eu uuu  uuuu  uuuuuuuuu",
"uuuuuuuuu , uuu , uu ue      r0000r      eu uu , uuu , uuuuuuuuu",
"uuuuu uuu : uuu > uu u8u    u000000u    u8u uu > uuu : uuu uuuuu",
"uuuuu  uu : uu &o< uu u8u  u00000000u  u8u uu <o& uu : uu  uuuuu",
"uuuuu , u > uu %$o< u uu8ee0000000000ee8uu u <o$% uu > u 1 uuuuu",
"uuuuu ># &o> u %$$o<   uuuu8999999998uuuu   <o$$% u >o& <# uuuuu",
"uuuuuu :#$@: u %$$$o:;>    uuuuuuuuuu    >;:o$$$% u :@@>+ uuuuuu",
"uuuuuu ;@$%o< *$$$$$@@@* &&          && 1o@@$$$$$* <o$$@% uuuuuu",
"uuuuuu ;@% %o< &%$$$$%& &$$%%%%%%%%%%$$& &%$$$$%& <o$$$$% uuuuuu",
"uuuuuu >o% &$o<  &%%&  &$$$$$$$$$$$$$$$@<  &%%&  <o$$%$$& uuuuuu",
"uuuuuuu :@& %$o:>    &%$$$$$$$%$$$$$$$$$o:>    >:o$$% %% uuuuuuu",
"uuuuuuu >o$%$$$@o::#%$$$$$$$%& %$$$$$$$%%@o:;;:o@$$$& %& uuuuuuu",
"uuuuuuuu :@$$$$$$@@$$$$$$$$%  &$$$$%%%&  &%@@@@$$$$% &% uuuuuuuu",
"uuuuuuuu >o$$$$$$$$$$$$$$$$$%%$%%%&        &%$$$$$$$%$& uuuuuuuu",
"uuuuuuuuu <o@$$$$$$$$$$$$$$$$$&              &%$$$$$$& uuuuuuuuu",
"uuuuuuuuuu >:@$$$$$$$$$$$$$$$&                 &%$$%& uuuuuuuuuu",
"uuuuuuuuu *  %$$$$$$$$$$$$$%&           uu       &&   uuuuuuuuuu",
"uuuuuuuuu %%%$$$$%%%$$$$%%&             uuuuu        u uuuuuuuuu",
"uuuuuuuu <@$$$%%&   %$$%                uuuuuuuu   5uuu uuuuuuuu",
"uuuuuuuu #$%%&   &%%$%%&                uuuuuuu  762=uuu uuuuuuu",
"uuuuuuu 1#&   *%%$%%&                    uuuuuuuu  64-=uu uuuuuu",
"uuuuuuu    uuu &%&   uu                  uuuuuuuuuu  64=uu uuuuu",
"uuuuuuu uuuuuu    uuuuu                  uuuuuuuuuuuu  63=u uuuu",
"uuuuuuuuuuuuuu uuuuuuuu                  uuuuuuuuuuuuuu  6-u uuu",
"uuuuuuuuuuuuuuuuuuuuuu                    uuuuuuuuuuuuuuu  3u uu",
"uuuuuuuuuuuuuuuuuuuuuu                    uuuuuuuuuuuuuuuuu  u u",
"uuuuuuuuuuuuuuuuuuuuuu        uuuu        uuuuuuuuuuuuuuuuuuu  u",
"uuuuuuuuuuuuuuuuuuuuuu      uuuuuuuu      uuuuuuuuuuuuuuuuuuuuuu",
"uuuuuuuuuuuuuuuuuuuuu      uuuuuuuuuu      uuuuuuuuuuuuuuuuuuuuu",
"uuuuuuuuuuuuuuuuuuuuu     uuuuuuuuuuuu     uuuuuuuuuuuuuuuuuuuuu",
"uuuuuuuuuuuuuuuuuuuuu     uuuuuuuuuuuu     uuuuuuuuuuuuuuuuuuuuu",
"uuuuuuuuuuuuuuuuuuuuu    uuuuuuuuuuuuuu    uuuuuuuuuuuuuuuuuuuuu",
"uuuuuuuuuuuuuuuuuuuuu    uuuuuuuuuuuuuu    uuuuuuuuuuuuuuuuuuuuu",
"uuuuuuuuuuuuuuuuuuuuu   uuuuuuuuuuuuuuuu   uuuuuuuuuuuuuuuuuuuuu",
"uuuuuuuuuuuuuuuuuuuuu   uuuuuuuuuuuuuuuu   uuuuuuuuuuuuuuuuuuuuu",
"uuuuuuuuuuuuuuuuuuuuu  uuuuuuuuuuuuuuuuuu  uuuuuuuuuuuuuuuuuuuuu",
"uuuuuuuuuuuuuuuuuuuuuuuuuuuuuuuuuuuuuuuuuuuuuuuuuuuuuuuuuuuuuuuu"
};
